<?xml version="1.0" encoding="utf-8"?>
<!-- Generator: Adobe Illustrator 16.0.0, SVG Export Plug-In . SVG Version: 6.00 Build 0)  -->
<!DOCTYPE svg PUBLIC "-//W3C//DTD SVG 1.1//EN" "http://www.w3.org/Graphics/SVG/1.1/DTD/svg11.dtd">
<svg version="1.1" id="Layer_1" xmlns="http://www.w3.org/2000/svg" xmlns:xlink="http://www.w3.org/1999/xlink" x="0px" y="0px"
	 width="512px" height="512px" viewBox="0 0 512 512" enable-background="new 0 0 512 512" xml:space="preserve">
<g id="_x38_._judge_x2C__hammer_x2C__law_x2C__police_x2C__court_x2C__jurisprudence_1_">
	<g>
		<g>
			<rect x="28.059" y="387.455" fill="#656D78" width="239.932" height="15.996"/>
		</g>
		<g>
			<rect x="4.065" y="403.451" fill="#965353" width="287.918" height="23.993"/>
		</g>
		<g opacity="0.2">
			<rect x="28.059" y="395.453" width="239.932" height="7.998"/>
		</g>
		<g opacity="0.2">
			<rect x="28.059" y="387.455" fill="#FFFFFF" width="15.996" height="7.998"/>
		</g>
		<g opacity="0.2">
			<rect x="4.065" y="403.451" fill="#FFFFFF" width="15.996" height="23.993"/>
		</g>
		<g opacity="0.2">
			<rect x="275.987" y="403.451" fill="#FFFFFF" width="15.996" height="23.993"/>
		</g>
		<g opacity="0.2">
			<rect x="251.999" y="387.455" width="15.992" height="7.998"/>
		</g>
	</g>
	<g>
		<g>
			<path fill="#7F4545" d="M499.959,397.608L248.398,249.137l-16.059,27.667L483.9,425.281c7.646,4.428,17.433,1.835,21.869-5.812
				C510.198,411.831,507.59,402.037,499.959,397.608z"/>
		</g>
		<g>
			<polygon fill="#965353" points="276.479,200.708 165.799,136.496 93.553,261.021 204.246,325.237 			"/>
		</g>
		<g>
			<path fill="#FFCE54" d="M212.693,246.919c-8.865,15.284-28.442,20.482-43.727,11.617c-15.281-8.864-20.483-28.445-11.614-43.726
				c8.865-15.281,28.441-20.482,43.723-11.618C216.356,212.061,221.561,231.638,212.693,246.919z"/>
		</g>
		<g opacity="0.5">
			<path fill="#FFFFFF" d="M164.264,218.825c8.186-14.098,25.435-19.467,40.063-13.273c-1.062-0.816-2.07-1.672-3.253-2.359
				c-15.281-8.865-34.858-3.663-43.723,11.618c-8.869,15.281-3.667,34.862,11.614,43.726c1.183,0.684,2.429,1.137,3.663,1.656
				C159.992,250.566,156.086,232.922,164.264,218.825z"/>
		</g>
		<g opacity="0.2">
			<path d="M205.772,242.904c-8.177,14.098-25.435,19.471-40.06,13.278c1.062,0.812,2.07,1.667,3.253,2.354
				c15.285,8.865,34.861,3.667,43.727-11.617c8.868-15.281,3.663-34.858-11.618-43.727c-1.184-0.687-2.425-1.136-3.663-1.656
				C210.049,211.163,213.954,228.807,205.772,242.904z"/>
		</g>
		<g>
			<path fill="#ED5565" d="M195.396,236.882c-3.32,5.726-10.669,7.682-16.394,4.358c-5.729-3.323-7.678-10.677-4.358-16.394
				c3.319-5.725,10.665-7.681,16.398-4.358C196.771,223.812,198.72,231.166,195.396,236.882z"/>
		</g>
		<g opacity="0.2">
			<path fill="#FFFFFF" d="M181.56,228.857c2.617-4.502,7.721-6.627,12.571-5.725c-0.863-1.02-1.875-1.937-3.089-2.644
				c-5.733-3.323-13.079-1.367-16.398,4.358c-3.319,5.717-1.371,13.071,4.358,16.394c1.214,0.707,2.515,1.129,3.823,1.371
				C179.639,238.851,178.948,233.364,181.56,228.857z"/>
		</g>
		<g opacity="0.2">
			<path d="M189.062,233.208c-2.616,4.507-7.725,6.627-12.571,5.729c0.863,1.015,1.875,1.937,3.093,2.64
				c5.725,3.327,13.074,1.367,16.394-4.354c3.319-5.721,1.375-13.074-4.358-16.394c-1.214-0.711-2.511-1.129-3.823-1.375
				C190.984,223.218,191.675,228.701,189.062,233.208z"/>
		</g>
		<g>
			
				<rect x="173.241" y="119.105" transform="matrix(0.865 0.5018 -0.5018 0.865 96.8962 -105.8962)" fill="#656D78" width="143.956" height="15.989"/>
		</g>
		<g>
			<polygon fill="#656D78" points="183.064,377.684 58.539,305.438 66.556,291.613 191.081,363.859 			"/>
		</g>
		<g>
			<polygon fill="#965353" points="199.13,349.988 74.609,277.742 66.572,291.598 191.093,363.836 			"/>
		</g>
		<g>
			<polygon fill="#965353" points="303.465,170.143 178.944,97.9 170.911,111.749 295.42,183.991 			"/>
		</g>
		<g>
			<polygon fill="#7F4545" points="281.604,175.938 184.758,119.754 172.719,140.506 269.56,196.698 			"/>
		</g>
		<g>
			
				<rect x="86.892" y="291.509" transform="matrix(0.865 0.5018 -0.5018 0.865 171.5928 -30.7172)" fill="#7F4545" width="111.971" height="24"/>
		</g>
		<g>
			<polygon fill="#ED5565" points="301.512,316.942 266.92,296.878 282.97,269.205 317.57,289.278 			"/>
		</g>
		<g>
			<path fill="#ED5565" d="M505.77,419.47c4.429-7.639,1.82-17.433-5.811-21.861l-13.84-8.029l-16.051,27.673l13.832,8.029
				C491.547,429.709,501.333,427.116,505.77,419.47z"/>
		</g>
		<g opacity="0.2">
			<path d="M499.959,397.608l-13.84-8.029c7.646,4.437,10.255,14.223,5.818,21.869c-4.437,7.639-14.238,10.231-21.869,5.804
				l13.832,8.029c7.646,4.428,17.433,1.835,21.869-5.812C510.198,411.831,507.59,402.037,499.959,397.608z"/>
		</g>
		<g opacity="0.2">
			<polygon points="197.326,321.223 100.473,265.035 96.462,271.947 193.311,328.143 			"/>
		</g>
		<g opacity="0.2">
			
				<rect x="167.165" y="161.148" transform="matrix(0.865 0.5018 -0.5018 0.865 113.0082 -89.6824)" width="111.964" height="7.991"/>
		</g>
		<g opacity="0.2">
			<polygon points="281.604,175.946 184.754,119.762 180.74,126.678 277.581,182.866 			"/>
		</g>
		<g opacity="0.2">
			<polygon fill="#FFFFFF" points="88.429,285.795 74.593,277.766 58.574,305.383 72.406,313.412 			"/>
		</g>
		<g opacity="0.2">
			<polygon points="199.114,350.012 185.282,341.982 169.259,369.601 183.095,377.629 			"/>
		</g>
		<g opacity="0.2">
			
				<rect x="177.865" y="85.943" transform="matrix(0.8649 0.5019 -0.5019 0.8649 76.2592 -79.523)" fill="#FFFFFF" width="15.997" height="31.933"/>
		</g>
		<g opacity="0.2">
			
				<rect x="128.595" y="130.79" transform="matrix(0.8649 0.5019 -0.5019 0.8649 120.2257 -41.1674)" fill="#FFFFFF" width="15.997" height="143.965"/>
		</g>
		<g opacity="0.2">
			<polygon points="276.479,200.708 262.651,192.684 190.406,317.208 204.246,325.237 			"/>
		</g>
		<g opacity="0.2">
			<polygon points="255.302,253.152 248.398,249.137 232.339,276.805 239.251,280.827 			"/>
		</g>
		<g opacity="0.2">
			<polygon points="311.486,156.326 297.638,148.297 281.611,175.918 295.459,183.944 			"/>
		</g>
		<g opacity="0.2">
			
				<rect x="177.656" y="130.148" transform="matrix(0.8649 0.502 -0.502 0.8649 92.4294 -75.0696)" fill="#FFFFFF" width="15.994" height="8.001"/>
		</g>
		<g opacity="0.2">
			<polygon points="277.581,182.862 263.76,174.836 259.738,181.753 273.574,189.782 			"/>
		</g>
		<g opacity="0.2">
			<polygon points="189.296,335.062 92.448,278.867 88.433,285.787 185.282,341.975 			"/>
		</g>
		<g opacity="0.2">
			<polygon fill="#FFFFFF" points="110.294,279.977 96.462,271.947 92.448,278.867 106.284,286.896 			"/>
		</g>
		<g opacity="0.2">
			<polygon points="193.311,328.143 179.475,320.113 175.46,327.025 189.296,335.062 			"/>
		</g>
	</g>
	<g id="_x38_._judge_x2C__hammer_x2C__law_x2C__police_x2C__court_x2C__jurisprudence">
		<g>
			<path fill="#3A3847" d="M267.99,399.451c-2.211,0-3.996-1.788-3.996-3.998v-3.999H32.057v3.999c0,2.21-1.788,3.998-3.999,3.998
				s-3.999-1.788-3.999-3.998v-7.998c0-2.211,1.789-3.999,3.999-3.999H267.99c2.21,0,3.998,1.788,3.998,3.999v7.998
				C271.988,397.663,270.2,399.451,267.99,399.451z"/>
		</g>
		<g>
			<path fill="#3A3847" d="M291.983,431.443H4.065c-2.21,0-3.999-1.789-3.999-3.999v-23.993c0-2.211,1.789-4,3.999-4h287.918
				c2.21,0,3.999,1.789,3.999,4v23.993C295.982,429.654,294.193,431.443,291.983,431.443z M8.064,423.445h279.92v-15.996H8.064
				V423.445z"/>
		</g>
		<g>
			<g>
				<path fill="#3A3847" d="M183.427,382.183c-0.691,0-1.379-0.18-1.988-0.53L56.551,310.046c-1.917-1.101-2.582-3.546-1.48-5.459
					l15.91-27.759c0.527-0.922,1.398-1.593,2.421-1.866c1.016-0.289,2.113-0.141,3.034,0.391l124.893,71.605
					c1.917,1.094,2.581,3.538,1.48,5.452l-15.914,27.758c-0.527,0.922-1.398,1.594-2.421,1.874
					C184.13,382.136,183.778,382.183,183.427,382.183z M63.998,305.094l117.949,67.631l11.935-20.822L75.928,284.279L63.998,305.094
					z"/>
			</g>
			<g>
				<path fill="#3A3847" d="M294.811,187.904c-0.695,0-1.375-0.18-1.991-0.531l-124.892-71.606
					c-0.922-0.527-1.593-1.398-1.871-2.421c-0.277-1.023-0.137-2.116,0.391-3.038l15.914-27.742c1.098-1.914,3.55-2.578,5.456-1.477
					l124.888,71.598c1.914,1.097,2.577,3.542,1.477,5.456l-15.902,27.75c-0.523,0.922-1.397,1.594-2.421,1.871
					C295.514,187.857,295.162,187.904,294.811,187.904z M175.375,110.819l117.952,67.626l11.927-20.811L187.309,90.016
					L175.375,110.819z"/>
			</g>
			<g>
				<path fill="#3A3847" d="M175.835,138.128c-0.676,0-1.359-0.172-1.984-0.531c-1.917-1.097-2.581-3.542-1.479-5.456l7.955-13.871
					c1.097-1.921,3.546-2.585,5.456-1.48c1.917,1.098,2.581,3.542,1.48,5.456l-7.955,13.871
					C178.569,137.405,177.222,138.128,175.835,138.128z"/>
			</g>
			<g>
				<path fill="#3A3847" d="M272.98,193.824c-0.68,0-1.359-0.172-1.991-0.531c-1.914-1.097-2.578-3.542-1.477-5.455l7.951-13.872
					c1.093-1.925,3.538-2.57,5.459-1.48c1.914,1.098,2.578,3.542,1.477,5.456l-7.951,13.872
					C275.714,193.101,274.363,193.824,272.98,193.824z"/>
			</g>
			<g>
				<path fill="#3A3847" d="M88.332,290.762c-0.676,0-1.359-0.172-1.984-0.531c-1.917-1.101-2.582-3.545-1.48-5.459l7.951-13.863
					c1.097-1.914,3.546-2.578,5.456-1.477c1.917,1.094,2.582,3.538,1.48,5.452l-7.951,13.863
					C91.065,290.036,89.718,290.762,88.332,290.762z"/>
			</g>
			<g>
				<path fill="#3A3847" d="M185.465,346.458c-0.676,0-1.359-0.172-1.983-0.531c-1.918-1.101-2.582-3.546-1.48-5.459l7.951-13.864
					c1.097-1.921,3.538-2.577,5.456-1.476c1.917,1.094,2.582,3.538,1.48,5.452l-7.951,13.863
					C188.199,345.731,186.852,346.458,185.465,346.458z"/>
			</g>
			<g>
				<path fill="#3A3847" d="M499.881,401.49c-0.695,0-1.391-0.18-2.031-0.555L259.938,260.712c-1.902-1.121-2.535-3.573-1.414-5.475
					c1.117-1.901,3.577-2.534,5.471-1.414l237.917,140.224c1.906,1.117,2.538,3.569,1.414,5.475
					C502.583,400.787,501.247,401.49,499.881,401.49z"/>
			</g>
			<g>
				<path fill="#3A3847" d="M483.971,429.256c-0.695,0-1.391-0.18-2.03-0.555L244.028,288.474c-1.902-1.124-2.534-3.577-1.414-5.476
					c1.121-1.913,3.573-2.538,5.475-1.413l237.913,140.228c1.905,1.117,2.538,3.57,1.413,5.476
					C486.673,428.553,485.338,429.256,483.971,429.256z"/>
			</g>
			<g>
				<path fill="#3A3847" d="M204.242,329.236c-0.68,0-1.371-0.172-2.003-0.539L91.545,264.48c-0.918-0.535-1.585-1.41-1.859-2.434
					c-0.27-1.026-0.125-2.116,0.406-3.034l72.247-124.524c1.105-1.91,3.55-2.566,5.467-1.453l110.68,64.213
					c1.914,1.109,2.562,3.558,1.453,5.468l-72.234,124.528C206.963,328.518,205.62,329.236,204.242,329.236z M99.02,259.567
					l103.773,60.202l68.22-117.608l-103.761-60.199L99.02,259.567z"/>
			</g>
			<g>
				<path fill="#3A3847" d="M491.891,431.365c-3.366,0-6.779-0.852-9.903-2.641c-1.922-1.093-2.586-3.537-1.484-5.459
					c1.094-1.93,3.554-2.577,5.452-1.484c5.756,3.289,13.098,1.297,16.378-4.443c1.593-2.789,2.015-6.022,1.18-9.115
					c-0.844-3.085-2.835-5.67-5.624-7.264c-1.913-1.102-2.577-3.546-1.476-5.459c1.093-1.922,3.538-2.578,5.459-1.477
					c4.632,2.655,7.959,6.959,9.356,12.106c1.398,5.154,0.703,10.552-1.96,15.19C505.582,427.757,498.834,431.365,491.891,431.365z"
					/>
			</g>
			<g>
				<path fill="#3A3847" d="M184.61,267.362c-6.249,0-12.434-1.656-17.886-4.784c-8.333-4.771-14.312-12.507-16.831-21.791
					c-2.515-9.278-1.27-18.983,3.515-27.324c6.396-11.161,18.378-18.097,31.261-18.097c6.241,0,12.415,1.647,17.859,4.764
					c17.222,9.885,23.197,31.921,13.325,49.132C209.459,260.423,197.486,267.362,184.61,267.362z M184.668,203.364
					c-10.024,0-19.346,5.393-24.325,14.074c-3.718,6.491-4.687,14.04-2.729,21.256c1.956,7.217,6.607,13.234,13.09,16.944
					c4.245,2.437,9.053,3.721,13.907,3.721c10.017,0,19.331-5.393,24.302-14.078c7.681-13.387,3.03-30.527-10.365-38.212
					C194.319,204.645,189.515,203.364,184.668,203.364z"/>
			</g>
			<g>
				<path fill="#3A3847" d="M184.626,243.361c-2.089,0-4.151-0.554-5.967-1.597c-2.769-1.582-4.765-4.155-5.604-7.248
					c-0.843-3.097-0.429-6.334,1.167-9.119c3.175-5.534,10.821-7.623,16.379-4.44c5.736,3.288,7.728,10.638,4.436,16.374
					C192.901,241.053,188.914,243.361,184.626,243.361z M184.638,227.362c-1.433,0-2.765,0.77-3.48,2.015
					c-0.531,0.926-0.667,2.004-0.386,3.039c0.277,1.027,0.941,1.882,1.863,2.406c1.921,1.113,4.409,0.371,5.467-1.469
					c1.097-1.909,0.433-4.362-1.48-5.459C186,227.538,185.336,227.362,184.638,227.362z"/>
			</g>
			<g>
				<path fill="#3A3847" d="M177.502,360.345c-0.675,0-1.358-0.172-1.983-0.53l-97.138-55.688c-1.917-1.102-2.582-3.546-1.48-5.46
					c1.094-1.921,3.538-2.577,5.456-1.476l97.138,55.688c1.917,1.094,2.581,3.538,1.48,5.452
					C180.236,359.619,178.889,360.345,177.502,360.345z"/>
			</g>
			<g>
				<path fill="#3A3847" d="M288.891,166.066c-0.68,0-1.359-0.172-1.992-0.531l-97.133-55.688c-1.917-1.097-2.581-3.542-1.48-5.455
					c1.098-1.922,3.55-2.582,5.456-1.48l97.141,55.688c1.914,1.097,2.577,3.542,1.477,5.455
					C291.624,165.343,290.272,166.066,288.891,166.066z"/>
			</g>
			<g>
				<path fill="#3A3847" d="M193.698,139.151c-0.676,0-1.355-0.168-1.984-0.527c-1.917-1.097-2.582-3.542-1.484-5.459l3.972-6.936
					c1.105-1.922,3.53-2.582,5.459-1.484c1.918,1.098,2.582,3.542,1.484,5.459l-3.972,6.936
					C196.431,138.428,195.084,139.151,193.698,139.151z"/>
			</g>
			<g>
				<path fill="#3A3847" d="M263.081,178.929c-0.676,0-1.355-0.168-1.984-0.527c-1.917-1.097-2.581-3.542-1.483-5.459l3.972-6.936
					c1.093-1.922,3.554-2.578,5.451-1.484c1.922,1.098,2.585,3.542,1.484,5.46l-3.968,6.936
					C265.811,178.207,264.467,178.929,263.081,178.929z"/>
			</g>
			<g>
				<path fill="#3A3847" d="M171.594,338.507c-0.676,0-1.355-0.172-1.984-0.53c-1.917-1.094-2.582-3.539-1.484-5.46l3.968-6.928
					c1.101-1.913,3.53-2.585,5.459-1.484c1.918,1.102,2.582,3.546,1.484,5.46l-3.968,6.928
					C174.328,337.781,172.98,338.507,171.594,338.507z"/>
			</g>
			<g>
				<path fill="#3A3847" d="M102.207,298.721c-0.676,0-1.359-0.172-1.984-0.531c-1.917-1.101-2.582-3.545-1.48-5.459l3.972-6.928
					c1.093-1.914,3.542-2.586,5.456-1.477c1.917,1.094,2.582,3.538,1.48,5.452l-3.972,6.928
					C104.94,297.994,103.593,298.721,102.207,298.721z"/>
			</g>
			<g>
				<path fill="#3A3847" d="M474.075,414.361c-0.68,0-1.359-0.172-1.984-0.531c-1.921-1.093-2.585-3.537-1.483-5.459l7.951-13.887
					c1.093-1.922,3.553-2.577,5.451-1.484c1.922,1.102,2.585,3.546,1.484,5.46l-7.951,13.887
					C476.809,413.636,475.457,414.361,474.075,414.361z"/>
			</g>
			<g>
				<path fill="#3A3847" d="M277.792,298.002c-0.68,0-1.359-0.172-1.992-0.531c-1.913-1.101-2.577-3.545-1.476-5.459l7.951-13.871
					c1.093-1.922,3.537-2.569,5.459-1.477c1.914,1.094,2.577,3.538,1.477,5.452l-7.951,13.871
					C280.525,297.276,279.174,298.002,277.792,298.002z"/>
			</g>
			<g>
				<path fill="#3A3847" d="M312.478,317.888c-0.679,0-1.358-0.172-1.991-0.531c-1.914-1.101-2.578-3.538-1.477-5.459l7.951-13.88
					c1.086-1.921,3.538-2.562,5.459-1.483c1.914,1.101,2.578,3.546,1.477,5.459l-7.951,13.88
					C315.211,317.161,313.86,317.888,312.478,317.888z"/>
			</g>
		</g>
	</g>
</g>
</svg>
